<svg xmlns="http://www.w3.org/2000/svg" viewBox="0 0 462.19 294.58">
  <defs>
    <style>.cls-1 {
      fill: #c3423f;
    }

    .cls-2 {
      fill: #119da4;
    }</style>
  </defs>
  <g id="Ebene_2" data-name="Ebene 2">
    <g id="Capa_1" data-name="Capa 1">
      <path class="cls-1"
            d="M459.25,138.3C455.12,132.65,356.74,0,231.09,0S7.06,132.65,2.93,138.3a15.25,15.25,0,0,0,0,18c4.13,5.65,102.51,138.3,228.16,138.3s224-132.65,228.16-138.3A15.21,15.21,0,0,0,459.25,138.3ZM231.09,264.11c-92.55,0-172.71-88.05-196.44-116.83C58.35,118.47,138.34,30.47,231.09,30.47c92.55,0,172.71,88,196.45,116.83C403.84,176.11,323.84,264.11,231.09,264.11Z"/>
      <path class="cls-2"
            d="M301.68,108h6.55A86.6,86.6,0,0,0,247.64,62.3a4.58,4.58,0,0,1-.69,1.93l-2,3.46L221.7,108h80Z"/>
      <path class="cls-2"
            d="M152.19,175.08h49.5l-14.32-24.94L161.73,105.8l-3.3-5.62a86.55,86.55,0,0,0-9.09,75.67A6.07,6.07,0,0,1,152.19,175.08Z"/>
      <path class="cls-2"
            d="M160.51,186.63H154a86.59,86.59,0,0,0,61,45.73,5.64,5.64,0,0,1,.77-2.85l1.47-2.62h.07l23.18-40.27H160.51Z"/>
      <path class="cls-2"
            d="M169.12,95.48l23.25,40.26,14-24.25.54-1,25.41-44,3.23-5.69c-1.46-.08-3-.08-4.47-.08a85.93,85.93,0,0,0-65.51,30.1,7.23,7.23,0,0,1,2,2.08Z"/>
      <path class="cls-2"
            d="M296.68,203.72a4.75,4.75,0,0,1-2.08-2l-1.53-2.62-23.25-40.33-14,24.32-.69,1.31-25.26,43.72-3.31,5.7c1.54,0,3,.07,4.54.07A86.14,86.14,0,0,0,296.68,203.72Z"/>
      <path class="cls-2"
            d="M310,119.5H260.5l14.31,24.94,25.64,44.34,3.31,5.62a86.55,86.55,0,0,0,9.09-75.67A6,6,0,0,1,310,119.5Z"/>
    </g>
  </g>
</svg>
